<?xml version="1.0" encoding="UTF-8" standalone="no"?>
<svg
   xmlns:dc="http://purl.org/dc/elements/1.1/"
   xmlns:cc="http://creativecommons.org/ns#"
   xmlns:rdf="http://www.w3.org/1999/02/22-rdf-syntax-ns#"
   xmlns:svg="http://www.w3.org/2000/svg"
   xmlns="http://www.w3.org/2000/svg"
   width="260"
   height="260"
   viewBox="0 0 68.791669 68.791665"
   version="1.1"
   id="svg997">
  <defs
     id="defs991" />
  <metadata
     id="metadata994">
    <rdf:RDF>
      <cc:Work
         rdf:about="">
        <dc:format>image/svg+xml</dc:format>
        <dc:type
           rdf:resource="http://purl.org/dc/dcmitype/StillImage" />
        <dc:title></dc:title>
      </cc:Work>
    </rdf:RDF>
  </metadata>
  <g
     id="layer1"
     transform="translate(0,-228.20834)">
    <g
       id="g1603"
       transform="translate(-44.053655,150.98914)">
      <g
         transform="translate(-27.792784,-147.32961)"
         id="g1578">
        <g
           id="g1522"
           transform="matrix(1.7333333,0,0,1.7333333,-95.48977,-81.734003)">
          <circle
             style="fill:#6c4a85;fill-opacity:1;stroke:none;stroke-width:1.47059739;stroke-linecap:round;stroke-linejoin:round;stroke-miterlimit:4;stroke-dasharray:none;stroke-opacity:1"
             id="circle1498"
             cx="116.38387"
             cy="196.54538"
             r="19.84375" />
          <g
             id="g1520"
             transform="matrix(2.5074804,0,0,2.5147275,12.426571,-175.59723)"
             style="fill:#ffffff">
            <g
               id="g1504"
               style="font-style:normal;font-weight:normal;font-size:7.93817568px;line-height:1.25;font-family:sans-serif;letter-spacing:0px;word-spacing:0px;fill:#ffffff;fill-opacity:1;stroke:none;stroke-width:0.19845439"
               aria-label="no" />
            <g
               id="g1510"
               style="font-style:normal;font-weight:normal;font-size:7.93817568px;line-height:1.25;font-family:sans-serif;letter-spacing:0px;word-spacing:0px;fill:#ffffff;fill-opacity:1;stroke:none;stroke-width:0.19845439"
               aria-label="us" />
          </g>
        </g>
        <g
           id="g1558"
           transform="matrix(1.1032888,0,0,1.1032888,-10.681722,-26.454152)">
          <g
             id="text1530"
             style="font-style:normal;font-weight:normal;font-size:13.2764225px;line-height:1.25;font-family:sans-serif;text-align:center;letter-spacing:0px;word-spacing:0px;text-anchor:middle;fill:#ffffff;fill-opacity:1;stroke:none;stroke-width:0.33191055"
             aria-label="nous">
            <path
               id="path1532"
               style="font-style:normal;font-variant:normal;font-weight:normal;font-stretch:normal;font-family:Lemonada;-inkscape-font-specification:Lemonada;text-align:center;text-anchor:middle;fill:#ffffff;fill-opacity:1;stroke-width:0.33191055"
               d="m 88.74179,262.56436 c -0.300933,0 -0.526632,-0.0752 -0.677098,-0.2257 -0.150466,-0.15047 -0.225699,-0.38944 -0.225699,-0.71692 0,-0.19472 0.03098,-0.5045 0.09293,-0.92935 0.06195,-0.42485 0.146037,-0.9205 0.252252,-1.48696 0.115062,-0.56646 0.238975,-1.15947 0.37174,-1.77904 0.141615,-0.62842 0.287655,-1.23914 0.438122,-1.83215 l -0.597439,-0.66382 c 0.221273,-0.19472 0.473525,-0.34519 0.756756,-0.4514 0.292081,-0.11506 0.548759,-0.17259 0.770032,-0.17259 0.265529,0 0.451399,0.0531 0.55761,0.15932 0.106211,0.10621 0.159317,0.2965 0.159317,0.57088 0,0.23013 -0.03983,0.49123 -0.119488,0.78331 -0.07081,0.28323 -0.168168,0.55319 -0.292081,0.80986 l 0.132764,0.0664 c 0.442547,-0.78773 0.951477,-1.3896 1.526789,-1.80559 0.584163,-0.41599 1.234707,-0.62399 1.951634,-0.62399 0.575311,0 1.000157,0.14604 1.274536,0.43812 0.283231,0.28323 0.424846,0.72578 0.424846,1.32764 0,0.40715 -0.04868,0.83199 -0.146041,1.27454 -0.08851,0.44255 -0.194721,0.89837 -0.318634,1.36747 -0.123913,0.4691 -0.23455,0.94263 -0.33191,1.42058 -0.08851,0.4691 -0.132765,0.9382 -0.132765,1.4073 0,0.31863 0.05753,0.54876 0.172594,0.69037 -0.265529,0.24783 -0.548759,0.37174 -0.849691,0.37174 -0.300933,0 -0.526632,-0.0752 -0.677098,-0.2257 -0.141615,-0.15047 -0.212423,-0.38944 -0.212423,-0.71692 0,-0.36289 0.03983,-0.77446 0.119488,-1.23471 0.08851,-0.4691 0.18587,-0.94263 0.292082,-1.42058 0.115062,-0.4868 0.212422,-0.94705 0.292081,-1.38075 0.08851,-0.43369 0.132764,-0.80543 0.132764,-1.11521 0,-0.36289 -0.07081,-0.63285 -0.212423,-0.80987 -0.132764,-0.17702 -0.33191,-0.26553 -0.597439,-0.26553 -0.389441,0 -0.835332,0.49855 -1.198221,0.72868 -0.354038,0.23013 -0.616223,0.89296 -0.926006,1.29126 -0.300933,0.39829 -0.566461,0.12642 -0.796586,0.64863 -0.230125,0.5222 -0.411569,1.07538 -0.544333,1.65955 -0.123913,0.58416 -0.18587,1.17717 -0.18587,1.77904 0,0.32749 0.05311,0.55761 0.159317,0.69037 -0.265529,0.24783 -0.544333,0.37174 -0.836414,0.37174 z" />
            <path
               id="path1534"
               style="font-style:normal;font-variant:normal;font-weight:normal;font-stretch:normal;font-family:Lemonada;-inkscape-font-specification:Lemonada;text-align:center;text-anchor:middle;fill:#ffffff;fill-opacity:1;stroke-width:0.33191055"
               d="m 100.78102,262.56436 q -0.969183,0 -1.68611,-0.42484 -0.716927,-0.43812 -1.11522,-1.22143 -0.385016,-0.78331 -0.385016,-1.84543 0,-1.06211 0.331911,-1.93835 0.345187,-0.88952 0.969178,-1.52679 0.623992,-0.63727 1.473687,-0.98246 0.84969,-0.35846 1.87197,-0.35846 0.27881,0 0.51778,0.0265 0.25225,0.0133 0.50451,0.0797 0.0929,0.13276 0.11948,0.29208 0.0398,0.14604 0.0531,0.33191 -1.3542,0 -2.29682,0.54434 -0.92935,0.54433 -1.420578,1.48695 -0.477952,0.92935 -0.477952,2.13751 0,1.16832 0.438122,1.84542 0.438118,0.66382 1.247988,0.66382 0.79658,0 1.42057,-0.43812 0.624,-0.4514 1.02229,-1.24798 0.41157,-0.80986 0.51778,-1.88526 -0.54433,-0.34518 -0.79659,-0.75675 -0.23897,-0.42485 -0.23897,-0.96918 0,-0.34519 0.13276,-0.61072 0.14604,-0.26552 0.38502,-0.41156 0.23897,-0.15932 0.54433,-0.15932 0.61072,0 0.9559,0.54433 0.34519,0.54434 0.34519,1.51351 0,1.11522 -0.34519,2.0844 -0.33191,0.9559 -0.94262,1.68611 -0.61072,0.71692 -1.42058,1.12849 -0.79658,0.41157 -1.72593,0.41157 z" />
            <path
               id="path1536"
               style="font-style:normal;font-variant:normal;font-weight:normal;font-stretch:normal;font-family:Lemonada;-inkscape-font-specification:Lemonada;text-align:center;text-anchor:middle;fill:#ffffff;fill-opacity:1;stroke-width:0.33191055"
               d="m 109.53827,262.56436 c -0.72578,0 -1.26126,-0.17702 -1.60645,-0.53105 -0.34519,-0.35404 -0.51778,-0.89395 -0.51778,-1.61973 0,-0.38944 0.031,-0.79658 0.0929,-1.22143 0.0708,-0.42485 0.15046,-0.84969 0.23897,-1.27453 0.0885,-0.42485 0.16375,-0.82757 0.2257,-1.20816 0.0708,-0.38944 0.10621,-0.74348 0.10621,-1.06211 0,-0.19472 -0.0133,-0.37617 -0.0398,-0.54434 -0.0265,-0.17701 -0.0619,-0.33633 -0.10621,-0.47795 0.17702,-0.10621 0.36289,-0.19029 0.55761,-0.25225 0.19472,-0.0708 0.35404,-0.10621 0.47795,-0.10621 0.25668,0 0.44255,0.0664 0.55761,0.19915 0.12391,0.13276 0.18587,0.35403 0.18587,0.66382 0,0.19472 -0.031,0.46025 -0.0929,0.79658 -0.0531,0.32749 -0.11952,0.69038 -0.19915,1.08867 l -0.23898,1.19488 c -0.0797,0.39829 -0.15046,0.76118 -0.21242,1.08866 -0.0531,0.32749 -0.0797,0.57974 -0.0797,0.75676 0,0.50451 0.10621,0.8851 0.31864,1.14177 0.22127,0.25668 0.53548,0.38502 0.94262,0.38502 0.52221,0 1.00458,-0.1903 1.44713,-0.57089 0.44255,-0.38944 0.78773,-0.9205 1.03556,-1.59317 l -0.0929,2.01802 c -0.5111,0.36986 -0.93454,0.76475 -2.07112,0.9559 -0.31863,0.11506 -0.62842,0.17259 -0.92935,0.17259 z m 3.55808,0 c -0.30093,0 -0.52663,-0.10178 -0.6771,-0.30535 0.0406,-0.59448 -0.20029,-1.29586 -0.10621,-2.00474 0.0797,-0.46025 0.19915,-1.07097 0.35846,-1.83215 0.15932,-0.76118 0.36732,-1.69496 0.624,-2.80133 l -0.54434,-0.79658 c 0.12391,-0.10621 0.26995,-0.19915 0.43812,-0.27881 0.17702,-0.0885 0.35847,-0.15489 0.54434,-0.19914 0.18587,-0.0531 0.35846,-0.0797 0.51778,-0.0797 0.26553,0 0.4514,0.0575 0.55761,0.17259 0.11506,0.10621 0.17259,0.29208 0.17259,0.55761 0,0.0619 -0.031,0.21683 -0.0929,0.46468 -0.0531,0.23897 -0.12394,0.54876 -0.21243,0.92935 -0.0885,0.37174 -0.18587,0.78331 -0.29208,1.2347 -0.0974,0.44255 -0.19472,0.89837 -0.29208,1.36748 -0.0885,0.4691 -0.16374,0.9205 -0.2257,1.35419 -0.0531,0.42485 -0.0797,0.80986 -0.0797,1.15505 0,0.33633 0.0752,0.57088 0.2257,0.70365 -0.26553,0.23897 -0.57088,0.35846 -0.91607,0.35846 z" />
            <path
               id="path1538"
               style="font-style:normal;font-variant:normal;font-weight:normal;font-stretch:normal;font-family:Lemonada;-inkscape-font-specification:Lemonada;text-align:center;text-anchor:middle;fill:#ffffff;fill-opacity:1;stroke-width:0.33191055"
               d="m 119.5379,262.56436 q -0.86296,0 -1.50023,-0.15931 -0.63727,-0.15932 -0.98246,-0.46468 -0.34518,-0.30536 -0.34518,-0.7302 0,-0.26553 0.15931,-0.50451 0.15932,-0.23897 0.4514,-0.39829 0.34519,0.66382 0.9028,1.02229 0.55761,0.34518 1.22143,0.34518 0.62399,0 1.10194,-0.14604 0.47795,-0.15932 0.74348,-0.46467 0.27881,-0.31864 0.27881,-0.78331 0,-0.35847 -0.31864,-0.58416 -0.31863,-0.23898 -0.82314,-0.41157 -0.49122,-0.18587 -1.04883,-0.37174 -0.55761,-0.18587 -1.06212,-0.4514 -0.49122,-0.26553 -0.80986,-0.66382 -0.31863,-0.41157 -0.31863,-1.02229 0,-0.55761 0.2788,-1.00901 0.29208,-0.46467 0.82314,-0.79658 0.53106,-0.34519 1.26126,-0.51778 0.7302,-0.18587 1.60645,-0.18587 1.06211,0 1.73921,0.31863 0.69037,0.30536 0.69037,0.80986 0,0.49123 -0.33191,0.74348 -0.31863,0.25226 -0.82314,0.25226 -0.5045,0 -0.86296,-0.31864 -0.35847,-0.33191 -0.54434,-0.92935 -1.08866,0.11949 -1.71265,0.51778 -0.61072,0.3983 -0.61072,0.94263 0,0.33191 0.31863,0.55761 0.31864,0.2257 0.80987,0.41157 0.49122,0.17259 1.04883,0.37174 0.57089,0.18587 1.06212,0.4514 0.49122,0.26552 0.80986,0.67709 0.31863,0.3983 0.31863,1.00901 0,0.51778 -0.23897,0.96918 -0.23898,0.4514 -0.70365,0.79659 -0.4514,0.33191 -1.11522,0.51778 -0.65055,0.19914 -1.47369,0.19914 z" />
          </g>
          <g
             id="text1526"
             style="font-style:normal;font-weight:normal;font-size:13.2764225px;line-height:1.25;font-family:sans-serif;text-align:center;letter-spacing:0px;word-spacing:0px;text-anchor:middle;fill:#d8a2ff;fill-opacity:1;stroke:none;stroke-width:0.33191055"
             aria-label="nous">
            <path
               id="path2257"
               style="font-style:normal;font-variant:normal;font-weight:normal;font-stretch:normal;font-family:Lemonada;-inkscape-font-specification:Lemonada;text-align:center;text-anchor:middle;fill:#d8a2ff;fill-opacity:1;stroke-width:0.33191055"
               d="m 89.270957,263.09354 q -0.451399,0 -0.677098,-0.2257 -0.225699,-0.2257 -0.225699,-0.71693 0,-0.29208 0.09293,-0.92935 0.09293,-0.63727 0.252252,-1.48696 0.172593,-0.84969 0.37174,-1.77904 0.212423,-0.94262 0.438122,-1.83214 l -0.597439,-0.66383 q 0.33191,-0.29208 0.756756,-0.45139 0.438122,-0.1726 0.770032,-0.1726 0.398293,0 0.55761,0.15932 0.159317,0.15932 0.159317,0.57089 0,0.34518 -0.119488,0.78331 -0.106211,0.42484 -0.292081,0.80986 l 0.132764,0.0664 q 0.663821,-1.1816 1.526789,-1.80559 0.876244,-0.624 1.951634,-0.624 0.862967,0 1.274537,0.43813 0.424845,0.42484 0.424845,1.32764 0,0.61071 -0.146041,1.27453 -0.132764,0.66383 -0.318634,1.36748 -0.18587,0.70365 -0.33191,1.42057 -0.132765,0.70365 -0.132765,1.4073 0,0.47796 0.172594,0.69038 -0.398293,0.37174 -0.849691,0.37174 -0.451398,0 -0.677098,-0.2257 -0.212422,-0.2257 -0.212422,-0.71693 0,-0.54433 0.119487,-1.23471 0.132765,-0.70365 0.292082,-1.42057 0.172593,-0.73021 0.292081,-1.38075 0.132764,-0.65055 0.132764,-1.11522 0,-0.54433 -0.212423,-0.80986 -0.199146,-0.26553 -0.597439,-0.26553 -0.584162,0 -1.128495,0.34519 -0.531057,0.34518 -0.995732,0.94262 -0.451399,0.59744 -0.796585,1.38075 -0.345187,0.78331 -0.544334,1.65955 -0.18587,0.87625 -0.18587,1.77904 0,0.49123 0.159317,0.69038 -0.398292,0.37174 -0.836414,0.37174 z" />
            <path
               id="path2259"
               style="font-style:normal;font-variant:normal;font-weight:normal;font-stretch:normal;font-family:Lemonada;-inkscape-font-specification:Lemonada;text-align:center;text-anchor:middle;fill:#d8a2ff;fill-opacity:1;stroke-width:0.33191055"
               d="m 101.31018,263.09354 q -0.96918,0 -1.686103,-0.42485 -0.716927,-0.43812 -1.115219,-1.22143 -0.385017,-0.78331 -0.385017,-1.84542 0,-1.06212 0.331911,-1.93836 0.345187,-0.88952 0.969179,-1.52679 0.623989,-0.63727 1.473679,-0.98245 0.84969,-0.35847 1.87198,-0.35847 0.2788,0 0.51778,0.0266 0.25225,0.0133 0.5045,0.0797 0.0929,0.13276 0.11949,0.29208 0.0398,0.14604 0.0531,0.33191 -1.3542,0 -2.29682,0.54433 -0.92935,0.54433 -1.42058,1.48696 -0.477952,0.92935 -0.477952,2.1375 0,1.16833 0.438122,1.84543 0.43812,0.66382 1.24798,0.66382 0.79659,0 1.42058,-0.43812 0.62399,-0.4514 1.02229,-1.24799 0.41156,-0.80986 0.51778,-1.88525 -0.54434,-0.34519 -0.79659,-0.75676 -0.23898,-0.42484 -0.23898,-0.96918 0,-0.34518 0.13277,-0.61071 0.14604,-0.26553 0.38502,-0.41157 0.23897,-0.15932 0.54433,-0.15932 0.61071,0 0.9559,0.54434 0.34519,0.54433 0.34519,1.51351 0,1.11522 -0.34519,2.0844 -0.33191,0.9559 -0.94263,1.6861 -0.61071,0.71693 -1.42057,1.1285 -0.79659,0.41157 -1.72594,0.41157 z" />
            <path
               id="path2261"
               style="font-style:normal;font-variant:normal;font-weight:normal;font-stretch:normal;font-family:Lemonada;-inkscape-font-specification:Lemonada;text-align:center;text-anchor:middle;fill:#d8a2ff;fill-opacity:1;stroke-width:0.33191055"
               d="m 110.06744,263.09354 q -1.08867,0 -1.60645,-0.53106 -0.51778,-0.53106 -0.51778,-1.61972 0,-0.58417 0.0929,-1.22143 0.10621,-0.63727 0.23898,-1.27454 0.13276,-0.63727 0.2257,-1.20815 0.10621,-0.58417 0.10621,-1.06212 0,-0.29208 -0.0398,-0.54433 -0.0398,-0.26553 -0.10621,-0.47795 0.26553,-0.15932 0.55761,-0.25225 0.29208,-0.10622 0.47795,-0.10622 0.38502,0 0.55761,0.19915 0.18587,0.19915 0.18587,0.66382 0,0.29208 -0.0929,0.79659 -0.0797,0.49122 -0.19914,1.08866 -0.11949,0.59744 -0.23898,1.19488 -0.11949,0.59744 -0.21242,1.08867 -0.0797,0.49123 -0.0797,0.75675 0,0.75676 0.31863,1.14178 0.33192,0.38501 0.94263,0.38501 0.78331,0 1.44713,-0.57088 0.66382,-0.58417 1.03556,-1.59317 l -0.0929,2.01801 -0.46468,-0.23897 q -0.2788,0.39829 -0.70365,0.71692 -0.42484,0.30536 -0.9028,0.47795 -0.47795,0.1726 -0.92934,0.1726 z m 3.55808,0 q -0.4514,0 -0.6771,-0.30536 -0.21242,-0.30536 -0.21242,-0.9559 0,-0.35847 0.10621,-1.04884 0.11949,-0.69037 0.35846,-1.83215 0.23898,-1.14177 0.62399,-2.80132 l -0.54433,-0.79659 q 0.18587,-0.15931 0.43812,-0.2788 0.26553,-0.13277 0.54433,-0.19915 0.27881,-0.0797 0.51779,-0.0797 0.39829,0 0.55761,0.1726 0.17259,0.15931 0.17259,0.55761 0,0.0929 -0.0929,0.46467 -0.0797,0.35847 -0.21242,0.92935 -0.13276,0.55761 -0.29208,1.23471 -0.14604,0.66382 -0.29208,1.36747 -0.13277,0.70365 -0.2257,1.3542 -0.0797,0.63726 -0.0797,1.15504 0,0.50451 0.2257,0.70365 -0.39829,0.35847 -0.91607,0.35847 z" />
            <path
               id="path2263"
               style="font-style:normal;font-variant:normal;font-weight:normal;font-stretch:normal;font-family:Lemonada;-inkscape-font-specification:Lemonada;text-align:center;text-anchor:middle;fill:#d8a2ff;fill-opacity:1;stroke-width:0.33191055"
               d="m 120.06707,263.09354 q -0.86297,0 -1.50023,-0.15932 -0.63727,-0.15932 -0.98246,-0.46467 -0.34519,-0.30536 -0.34519,-0.73021 0,-0.26553 0.15932,-0.5045 0.15932,-0.23898 0.4514,-0.39829 0.34519,0.66382 0.9028,1.02228 0.55761,0.34519 1.22143,0.34519 0.62399,0 1.10194,-0.14604 0.47795,-0.15932 0.74348,-0.46468 0.2788,-0.31863 0.2788,-0.78331 0,-0.35846 -0.31863,-0.58416 -0.31863,-0.23898 -0.82314,-0.41157 -0.49123,-0.18587 -1.04884,-0.37174 -0.55761,-0.18587 -1.06211,-0.4514 -0.49123,-0.26553 -0.80986,-0.66382 -0.31864,-0.41157 -0.31864,-1.02228 0,-0.55761 0.27881,-1.00901 0.29208,-0.46468 0.82314,-0.79659 0.53105,-0.34518 1.26126,-0.51778 0.7302,-0.18587 1.60645,-0.18587 1.06211,0 1.73921,0.31864 0.69037,0.30536 0.69037,0.80986 0,0.49123 -0.33191,0.74348 -0.31863,0.25225 -0.82314,0.25225 -0.5045,0 -0.86297,-0.31863 -0.35846,-0.33191 -0.54433,-0.92935 -1.08867,0.11949 -1.71266,0.51778 -0.61071,0.39829 -0.61071,0.94262 0,0.33191 0.31863,0.55761 0.31864,0.2257 0.80986,0.41157 0.49123,0.1726 1.04884,0.37174 0.57089,0.18587 1.06211,0.4514 0.49123,0.26553 0.80987,0.6771 0.31863,0.39829 0.31863,1.00901 0,0.51778 -0.23898,0.96918 -0.23897,0.45139 -0.70365,0.79658 -0.45139,0.33191 -1.11522,0.51778 -0.65054,0.19915 -1.47368,0.19915 z" />
          </g>
        </g>
        <g
           transform="matrix(1.60666,0,0,1.6,-80.747041,-55.527959)"
           id="g1549">
          <circle
             r="19.84375"
             cy="196.54538"
             cx="116.38387"
             id="circle1541"
             style="fill:none;fill-opacity:1;stroke:#ffffff;stroke-width:0.66008598;stroke-linecap:round;stroke-linejoin:round;stroke-miterlimit:4;stroke-dasharray:0.66008596, 1.98025787;stroke-dashoffset:0;stroke-opacity:1" />
          <g
             style="fill:#ffffff"
             transform="matrix(2.5074804,0,0,2.5147275,12.426571,-175.59723)"
             id="g1547">
            <g
               aria-label="no"
               style="font-style:normal;font-weight:normal;font-size:7.93817568px;line-height:1.25;font-family:sans-serif;letter-spacing:0px;word-spacing:0px;fill:#ffffff;fill-opacity:1;stroke:none;stroke-width:0.19845439"
               id="g1543" />
            <g
               aria-label="us"
               style="font-style:normal;font-weight:normal;font-size:7.93817568px;line-height:1.25;font-family:sans-serif;letter-spacing:0px;word-spacing:0px;fill:#ffffff;fill-opacity:1;stroke:none;stroke-width:0.19845439"
               id="g1545" />
          </g>
        </g>
      </g>
    </g>
  </g>
</svg>
